<svg xmlns="http://www.w3.org/2000/svg" version="1.0" width="300.000000pt" height="300.000000pt" viewBox="0 0 220.000000 196.000000" preserveAspectRatio="xMidYMid meet">

<g transform="translate(0.000000,196.000000) scale(0.100000,-0.100000)" fill="#000000" stroke="none">
<path d="M885 1916 c-88 -94 -181 -494 -191 -829 -4 -150 -14 -182 -74 -251 -31 -34 -38 -60 -20 -71 14 -9 50 12 98 58 41 40 42 41 42 15 0 -105 247 -130 347 -36 l23 21 0 -37 c0 -71 43 -102 74 -54 20 32 25 85 36 393 6 149 13 300 16 337 6 67 6 67 -21 74 -19 5 -32 2 -45 -12 -17 -17 -21 -54 -36 -319 -15 -280 -18 -302 -38 -324 -35 -39 -94 -61 -169 -61 -63 0 -71 3 -98 29 -40 41 -38 73 10 128 98 111 171 408 171 695 0 242 -45 329 -125 244z m54 -167 c8 -222 -70 -594 -144 -684 l-24 -30 -1 47 c0 55 33 325 56 448 20 111 63 290 76 314 19 35 33 -2 37 -95z"/>
<path d="M211 1918 c-51 -14 -97 -54 -122 -105 -48 -99 -10 -209 165 -472 162 -245 197 -316 198 -402 1 -206 -252 -193 -349 18 -21 46 -25 66 -21 127 3 61 8 80 36 123 37 57 38 86 6 91 -23 3 -56 -34 -95 -108 -35 -68 -34 -194 2 -271 35 -75 96 -134 175 -171 57 -27 73 -30 138 -26 62 3 79 8 110 32 50 38 74 79 81 140 13 104 -27 202 -172 417 -156 233 -224 398 -191 466 19 39 74 73 118 73 49 0 79 -25 118 -98 40 -76 55 -88 76 -67 49 50 -27 188 -126 229 -42 18 -96 19 -147 4z"/>
<path d="M1155 1804 c-20 -20 -16 -32 17 -57 48 -35 94 17 50 56 -23 21 -46 22 -67 1z"/>
<path d="M1494 1795 c-8 -19 22 -65 42 -65 24 0 54 19 54 35 0 35 -84 61 -96 30z"/>
<path d="M2068 1524 c-27 -14 -39 -44 -18 -44 6 0 -22 -30 -61 -67 -136 -128 -214 -265 -253 -445 -5 -22 -28 -39 -123 -92 -64 -37 -118 -64 -121 -61 -2 2 -7 107 -9 232 -5 223 -11 275 -41 321 -12 18 -17 20 -29 10 -13 -10 -14 -53 -11 -288 3 -151 8 -282 12 -290 5 -12 -10 -24 -66 -50 -39 -19 -106 -57 -147 -84 -305 -197 -345 -483 -84 -603 71 -33 183 -54 262 -51 l66 3 20 40 c19 37 20 60 20 340 0 165 3 307 8 315 7 14 206 120 226 120 4 0 11 -23 14 -51 9 -73 20 -83 85 -76 108 11 212 112 293 282 72 152 97 289 81 433 -14 117 -49 147 -124 106z m59 -136 c30 -39 21 -114 -27 -236 -77 -191 -233 -396 -286 -375 -17 6 -19 89 -3 99 7 4 9 24 5 55 -16 119 114 365 233 441 50 31 64 34 78 16z m-713 -828 c5 -118 -6 -378 -20 -439 -5 -23 -8 -23 -62 -18 -179 19 -292 100 -292 209 0 76 90 208 193 285 53 39 149 93 168 93 3 0 9 -59 13 -130z"/>
</g>
</svg>